<svg xmlns="http://www.w3.org/2000/svg" xmlns:xlink="http://www.w3.org/1999/xlink" viewBox="0 0 42.52 35.57"><defs><style>.cls-1{fill:url(#Gradiente_sem_nome_24);}.cls-2{fill:#fff;}</style><linearGradient id="Gradiente_sem_nome_24" x1="37.69" y1="34.21" x2="4.83" y2="1.36" gradientUnits="userSpaceOnUse"><stop offset="0" stop-color="#b07dfb"/><stop offset="1" stop-color="#84e"/></linearGradient></defs><g id="Camada_2" data-name="Camada 2"><rect class="cls-1" width="42.52" height="35.57" rx="10.57"/></g><g id="Camada_1" data-name="Camada 1"><path class="cls-2" d="M37.18,6.3A1.82,1.82,0,0,0,35.25,8C35,9.86,37.46,9.6,37.46,15.21s-2.82,11.65-6.85,11.65a3.63,3.63,0,0,1-3.53-3c2.77-3.48,4.94-9,4.94-12.61s-1.61-5.09-3.78-5.09c-4.24,0-6.76,5.8-6.76,11.3a18.38,18.38,0,0,0,1.31,7,6.63,6.63,0,0,1-4.23,2.27c-2.22,0-3.53-1.76-2.83-5.64,1.16-6.33,3.33-9.95,4.19-14.48H18.31c-2,1.16-3.58-.1-5.7-.1S9,8,8.42,10.27l.76.46c1.16-2.08,3.63-1.37,5.3-.36-.86,3-3.94,6.79-4.63,10.54-.9,5,1.78,8.48,6.72,8.48A11.48,11.48,0,0,0,24,26.32a6.83,6.83,0,0,0,5.9,3.07c5.84,0,10.22-6.8,10.22-15C40.09,7.89,38.43,6.3,37.18,6.3ZM26.33,18.45C26.48,13.66,27.69,9,29,9c.51,0,.81.54.82,2.17a24.22,24.22,0,0,1-3.39,10.34A21.09,21.09,0,0,1,26.33,18.45Z" transform="translate(-2.99)"/></g></svg>